<?xml version="1.0" encoding="UTF-8"?>
<svg version="1.1" xmlns="http://www.w3.org/2000/svg" width="673" height="1023">
<path d="M0 0 C212.52 0 425.04 0 644 0 C644.82492205 4.12461023 645.17439042 7.58750388 645.27922153 11.75413895 C645.29725912 12.42378892 645.3152967 13.09343889 645.33388087 13.78338128 C645.39337214 16.03203509 645.44661726 18.28079303 645.49989319 20.52960205 C645.54163711 22.15754048 645.58375894 23.78546925 645.62622637 25.41338897 C645.7419585 29.89341725 645.85218358 34.3735668 645.96149552 38.85375571 C646.08038948 43.6884865 646.20429357 48.52308932 646.32749939 53.35771179 C646.59669678 63.96004342 646.85930978 74.56253215 647.12068486 85.16505909 C647.28496428 91.82716534 647.4506812 98.48923535 647.61669731 105.15129852 C648.07858812 123.69423015 648.53906655 142.23719528 648.99364567 160.78030777 C649.03735716 162.56334031 649.03735716 162.56334031 649.0819517 164.3823937 C649.14100187 166.79135971 649.20005088 169.20032575 649.25909872 171.60929182 C649.28840327 172.80476361 649.31770782 174.00023539 649.34790039 175.23193359 C649.37724104 176.4289219 649.40658168 177.62591021 649.43681144 178.85917088 C649.90692419 198.02715797 650.38716618 217.19487552 650.87218959 236.36249056 C651.37334336 256.17312089 651.86586914 275.98395155 652.35034078 295.79499698 C652.62117445 306.8627103 652.89521226 317.93031936 653.17860603 328.99771881 C657.27858748 489.4968659 657.27858748 489.4968659 651.43113947 559.44880533 C650.90784973 565.80122309 650.42514459 572.15677369 649.93649292 578.51193237 C649.12003838 589.06306345 648.27946368 599.61200268 647.41943359 610.15966797 C646.53979484 620.9485171 645.67957293 631.73862311 644.84130859 642.53076172 C644.78867348 643.20835246 644.73603837 643.88594321 644.68180825 644.584067 C644.47005348 647.31063245 644.25834438 650.03720143 644.04671568 652.76377667 C643.18455189 663.86561264 642.30844425 674.96635405 641.42979193 686.06689596 C641.23201469 688.56653161 641.03458715 691.06619496 640.83751154 693.56588602 C640.28103271 700.6198678 639.71728124 707.67318759 639.14144135 714.72561646 C638.96889351 716.85112924 638.79874029 718.976838 638.63116837 721.10274887 C638.40214114 724.0016407 638.1641979 726.89966513 637.92385864 729.79763794 C637.85964726 730.63480319 637.79543587 731.47196844 637.72927868 732.33450234 C637.66259547 733.11563484 637.59591225 733.89676733 637.52720833 734.70157051 C637.47328804 735.36757999 637.41936775 736.03358946 637.36381352 736.71978104 C636.86085651 739.8720886 635.8769591 742.93064316 635 746 C532.37 746 429.74 746 324 746 C324 837.41 324 928.82 324 1023 C217.74 1023 111.48 1023 2 1023 C0.74149567 1019.22448702 0.49954937 1015.49772103 0.15843201 1011.55786133 C0.07999009 1010.68437105 0.00154817 1009.81088078 -0.07927078 1008.9109211 C-0.34240831 1005.96827207 -0.60009759 1003.02517261 -0.85766602 1000.08203125 C-1.04479365 997.97309032 -1.23213623 995.86416845 -1.41967773 993.75526428 C-3.15831072 974.13869284 -4.84174263 954.51716359 -6.51400852 934.89483643 C-6.7403028 932.24091971 -6.96663886 929.58700664 -7.19311523 926.93310547 C-7.24937141 926.27382144 -7.30562759 925.61453741 -7.3635885 924.93527508 C-8.30961543 913.85872932 -9.28958533 902.78537467 -10.27932411 891.71265697 C-11.19039616 881.49362294 -12.06961268 871.27209247 -12.92904419 861.04858875 C-13.43746415 855.0103582 -13.95672968 848.97373795 -14.51184273 842.93960571 C-22.54352029 755.17297984 -17.49280794 666.36959653 -14.74152875 556.22419042 C-14.4069899 542.91436244 -14.07771355 529.60441172 -13.75184441 516.29436874 C-13.72842164 515.33783866 -13.70499887 514.38130858 -13.68086631 513.39579274 C-13.58574613 509.51079121 -13.49065598 505.62578896 -13.39560572 501.74078572 C-12.53709706 466.65149804 -11.667881 431.56248452 -10.79174805 396.47363281 C-9.96645164 363.42075715 -9.14849831 330.3677103 -8.33862305 297.31445312 C-8.31350716 296.28946846 -8.28839127 295.2644838 -8.2625143 294.208439 C-8.18652629 291.10734416 -8.11054053 288.00624925 -8.03455502 284.90515435 C-7.93360916 280.78543343 -7.83265893 276.66571263 -7.73170567 272.5459919 C-7.69433616 271.02090672 -7.69433616 271.02090672 -7.65621171 269.46501173 C-6.87906675 237.75185956 -6.09556798 206.03886421 -5.31092246 174.32589684 C-5.05133977 163.83425316 -4.79215367 153.34259998 -4.53418851 142.85091639 C-4.51099322 141.90757258 -4.48779794 140.96422878 -4.46389977 139.99229881 C-4.44075716 139.0510748 -4.41761455 138.10985079 -4.39377064 137.14010485 C-3.94924649 119.06123959 -3.50200075 100.98244644 -3.04861493 82.90380104 C-2.82170545 73.85289926 -2.59716224 64.8019463 -2.37604489 55.75090112 C-2.22832899 49.71454814 -2.07743383 43.67828015 -1.92389946 37.64207238 C-1.83643832 34.20018109 -1.75037046 30.7582702 -1.66811521 27.31625022 C-1.57894687 23.61575902 -1.48444996 19.91544208 -1.38854313 16.21512032 C-1.35157284 14.60131098 -1.35157284 14.60131098 -1.31385568 12.95489943 C-1.28724029 11.9707545 -1.26062491 10.98660957 -1.23320299 9.97264206 C-1.20161692 8.70347398 -1.20161692 8.70347398 -1.16939274 7.40866614 C-1 5 -1 5 0 0 Z " fill="#F59FD2" transform="translate(18,0)"/>
<path d="M0 0 C212.52 0 425.04 0 644 0 C644.82492205 4.12461023 645.17439042 7.58750388 645.27922153 11.75413895 C645.29725912 12.42378892 645.3152967 13.09343889 645.33388087 13.78338128 C645.39337214 16.03203509 645.44661726 18.28079303 645.49989319 20.52960205 C645.54163711 22.15754048 645.58375894 23.78546925 645.62622637 25.41338897 C645.7419585 29.89341725 645.85218358 34.3735668 645.96149552 38.85375571 C646.08038948 43.6884865 646.20429357 48.52308932 646.32749939 53.35771179 C646.59669678 63.96004342 646.85930978 74.56253215 647.12068486 85.16505909 C647.28496428 91.82716534 647.4506812 98.48923535 647.61669731 105.15129852 C648.07858812 123.69423015 648.53906655 142.23719528 648.99364567 160.78030777 C649.03735716 162.56334031 649.03735716 162.56334031 649.0819517 164.3823937 C649.14100187 166.79135971 649.20005088 169.20032575 649.25909872 171.60929182 C649.28840327 172.80476361 649.31770782 174.00023539 649.34790039 175.23193359 C649.37724104 176.4289219 649.40658168 177.62591021 649.43681144 178.85917088 C649.90692419 198.02715797 650.38716618 217.19487552 650.87218959 236.36249056 C651.37334336 256.17312089 651.86586914 275.98395155 652.35034078 295.79499698 C652.62117445 306.8627103 652.89521226 317.93031936 653.17860603 328.99771881 C657.27858748 489.4968659 657.27858748 489.4968659 651.43113947 559.44880533 C650.90784973 565.80122309 650.42514459 572.15677369 649.93649292 578.51193237 C649.12003838 589.06306345 648.27946368 599.61200268 647.41943359 610.15966797 C646.53979484 620.9485171 645.67957293 631.73862311 644.84130859 642.53076172 C644.78867348 643.20835246 644.73603837 643.88594321 644.68180825 644.584067 C644.47005348 647.31063245 644.25834438 650.03720143 644.04671568 652.76377667 C643.18455189 663.86561264 642.30844425 674.96635405 641.42979193 686.06689596 C641.23201469 688.56653161 641.03458715 691.06619496 640.83751154 693.56588602 C640.28103271 700.6198678 639.71728124 707.67318759 639.14144135 714.72561646 C638.96889351 716.85112924 638.79874029 718.976838 638.63116837 721.10274887 C638.40214114 724.0016407 638.1641979 726.89966513 637.92385864 729.79763794 C637.85964726 730.63480319 637.79543587 731.47196844 637.72927868 732.33450234 C637.66259547 733.11563484 637.59591225 733.89676733 637.52720833 734.70157051 C637.47328804 735.36757999 637.41936775 736.03358946 637.36381352 736.71978104 C636.86085651 739.8720886 635.8769591 742.93064316 635 746 C532.37 746 429.74 746 324 746 C324 837.41 324 928.82 324 1023 C217.74 1023 111.48 1023 2 1023 C0.74149567 1019.22448702 0.49954937 1015.49772103 0.15843201 1011.55786133 C0.07999009 1010.68437105 0.00154817 1009.81088078 -0.07927078 1008.9109211 C-0.34240831 1005.96827207 -0.60009759 1003.02517261 -0.85766602 1000.08203125 C-1.04479365 997.97309032 -1.23213623 995.86416845 -1.41967773 993.75526428 C-3.15831072 974.13869284 -4.84174263 954.51716359 -6.51400852 934.89483643 C-6.7403028 932.24091971 -6.96663886 929.58700664 -7.19311523 926.93310547 C-7.24937141 926.27382144 -7.30562759 925.61453741 -7.3635885 924.93527508 C-8.30961543 913.85872932 -9.28958533 902.78537467 -10.27932411 891.71265697 C-11.19039616 881.49362294 -12.06961268 871.27209247 -12.92904419 861.04858875 C-13.43746415 855.0103582 -13.95672968 848.97373795 -14.51184273 842.93960571 C-22.54352029 755.17297984 -17.49280794 666.36959653 -14.74152875 556.22419042 C-14.4069899 542.91436244 -14.07771355 529.60441172 -13.75184441 516.29436874 C-13.72842164 515.33783866 -13.70499887 514.38130858 -13.68086631 513.39579274 C-13.58574613 509.51079121 -13.49065598 505.62578896 -13.39560572 501.74078572 C-12.53709706 466.65149804 -11.667881 431.56248452 -10.79174805 396.47363281 C-9.96645164 363.42075715 -9.14849831 330.3677103 -8.33862305 297.31445312 C-8.31350716 296.28946846 -8.28839127 295.2644838 -8.2625143 294.208439 C-8.18652629 291.10734416 -8.11054053 288.00624925 -8.03455502 284.90515435 C-7.93360916 280.78543343 -7.83265893 276.66571263 -7.73170567 272.5459919 C-7.69433616 271.02090672 -7.69433616 271.02090672 -7.65621171 269.46501173 C-6.87906675 237.75185956 -6.09556798 206.03886421 -5.31092246 174.32589684 C-5.05133977 163.83425316 -4.79215367 153.34259998 -4.53418851 142.85091639 C-4.51099322 141.90757258 -4.48779794 140.96422878 -4.46389977 139.99229881 C-4.44075716 139.0510748 -4.41761455 138.10985079 -4.39377064 137.14010485 C-3.94924649 119.06123959 -3.50200075 100.98244644 -3.04861493 82.90380104 C-2.82170545 73.85289926 -2.59716224 64.8019463 -2.37604489 55.75090112 C-2.22832899 49.71454814 -2.07743383 43.67828015 -1.92389946 37.64207238 C-1.83643832 34.20018109 -1.75037046 30.7582702 -1.66811521 27.31625022 C-1.57894687 23.61575902 -1.48444996 19.91544208 -1.38854313 16.21512032 C-1.35157284 14.60131098 -1.35157284 14.60131098 -1.31385568 12.95489943 C-1.28724029 11.9707545 -1.26062491 10.98660957 -1.23320299 9.97264206 C-1.20161692 8.70347398 -1.20161692 8.70347398 -1.16939274 7.40866614 C-1 5 -1 5 0 0 Z M41 55 C40.34 92.62 39.68 130.24 39 169 C38.5526469 191.58222974 38.10274528 214.16407035 37.61856914 236.74548697 C37.52372184 241.17555866 37.42981799 245.60565009 37.336092 250.03574562 C37.31999953 250.79631102 37.30390707 251.55687641 37.28732695 252.34048924 C37.25455256 253.8895765 37.22177937 255.43866379 37.18900735 256.9877511 C36.89149873 271.04589323 36.59147205 285.10398059 36.29042352 299.1620473 C36.01707784 311.92999768 35.74688405 324.69801267 35.47804933 337.46605875 C35.19631247 350.84577773 34.91267662 364.22545519 34.62694556 377.60508949 C34.59465845 379.11722261 34.56237399 380.62935579 34.53009224 382.14148903 C34.51423827 382.88410315 34.49838429 383.62671727 34.48204989 384.39183485 C34.37232422 389.53700252 34.26378923 394.68219444 34.15577507 399.8273983 C34.0112343 406.71123895 33.86396469 413.59501688 33.71492958 420.47876167 C33.6612485 422.97670513 33.60841107 425.4746669 33.55654144 427.97264862 C33.29582273 440.50339602 32.94475029 453.01885512 32.36450958 465.53902876 C31.87973064 476.20393656 31.65171454 486.8721356 31.42749023 497.54516602 C31.378283 499.79902071 31.32886858 502.05287088 31.27926636 504.30671692 C31.14671363 510.36191829 31.01738495 516.41718415 30.8889606 522.47247434 C30.7804812 527.57666199 30.67057441 532.68081858 30.56074673 537.78497738 C30.31559692 549.18267399 30.07278371 560.58041775 29.83187424 571.97820462 C29.81031988 572.99796672 29.81031988 572.99796672 29.78833008 574.03833008 C29.77394251 574.71904235 29.75955493 575.39975462 29.74473137 576.10109454 C29.51280474 587.06820694 29.27597377 598.03520702 29.03683745 609.00216437 C28.78894747 620.3732205 28.54495923 631.74435359 28.30449444 643.11556953 C28.17038195 649.45482455 28.03488645 655.79404106 27.89541435 662.13318062 C27.76373714 668.12438324 27.63708252 674.11567449 27.51371384 680.10705376 C27.46863634 682.25990207 27.42202702 684.41271923 27.37341881 686.56549072 C26.85293404 709.715344 27 732.83408522 27 756 C110.49 756 193.98 756 280 756 C280 660.63 280 565.26 280 467 C389.23 467 498.46 467 611 467 C611.07621361 437.68858154 611.07621361 437.68858154 610.11962891 408.49951172 C609.75300478 400.83931216 609.65231191 393.16682145 609.5 385.5 C609.4801001 384.54343506 609.4602002 383.58687012 609.43969727 382.60131836 C609.01513609 362.13152268 608.74539162 341.65960887 608.46875 321.18741989 C608.19992056 301.3112695 607.91452648 281.43627554 607.5 261.5625 C607.48203369 260.66241211 607.46406738 259.76232422 607.44555664 258.83496094 C607.27028787 250.153907 607.03433466 241.4821331 606.63354492 232.80833435 C606.1338906 221.93565768 605.86040856 211.06982872 605.71875 200.1875 C605.70436134 199.08288831 605.70436134 199.08288831 605.68968201 197.95596123 C605.61194793 191.87016191 605.54285024 185.78426856 605.47393799 179.69836426 C605.4219133 175.13062104 605.3668187 170.56293224 605.30812073 165.99526978 C605.28260095 163.92224063 605.26118966 161.84920122 605.2401123 159.77612305 C605.08478832 147.49167989 604.51227179 135.29452293 604 123 C603.67 100.56 603.34 78.12 603 55 C417.54 55 232.08 55 41 55 Z " fill="#431B38" transform="translate(18,0)"/>
<path d="M0 0 C83.49 0 166.98 0 253 0 C254.15695554 52.0629994 254.15695554 52.0629994 254.31640625 68.1171875 C254.33728074 70.05754724 254.35827655 71.99790567 254.37937927 73.93826294 C254.42224774 77.93799259 254.46320208 81.93773556 254.50268555 85.9375 C254.54147119 89.84932089 254.58308262 93.7610927 254.62768555 97.67285156 C255.06273144 136.11861692 255 174.54741952 255 213 C175.8 213 96.6 213 15 213 C14.01 200.13 14.01 200.13 13 187 C12.39499584 180.86775195 12.39499584 180.86775195 11.7890625 174.7355957 C9.34971943 149.19346577 7.95041347 123.53728512 6.38217163 97.93054199 C5.30700554 80.42609613 4.11668455 62.93088969 2.875 45.4375 C2.78864288 44.209245 2.70228577 42.98098999 2.61331177 41.71551514 C2.36739687 38.22550217 2.11791941 34.73576359 1.8671875 31.24609375 C1.79438065 30.20973282 1.72157379 29.17337189 1.64656067 28.10560608 C1.36487391 24.23635481 1.07198276 20.44036328 0.44580078 16.60961914 C-0.23306992 11.1128484 0 5.53853356 0 0 Z " fill="#7E4567" transform="translate(45,756)"/>
<path d="M0 0 C26.73 0 53.46 0 81 0 C80.67 22.77 80.34 45.54 80 69 C53.6 69 27.2 69 0 69 C-0.28919204 90.21135799 -0.28919204 90.21135799 -0.56811523 111.42285156 C-0.60623523 114.07878142 -0.64470411 116.7347063 -0.68359375 119.390625 C-0.69173599 120.0792865 -0.69987823 120.767948 -0.70826721 121.47747803 C-0.73267876 123.51140999 -0.76356273 125.5452611 -0.79467773 127.57910156 C-0.81022202 128.72493713 -0.8257663 129.87077271 -0.84178162 131.05133057 C-1 134 -1 134 -2 138 C-29.06 138 -56.12 138 -84 138 C-83.67 115.23 -83.34 92.46 -83 69 C-55.94 69 -28.88 69 -1 69 C-1.03911174 55.27146287 -1.03911174 55.27146287 -1.09008789 41.54296875 C-1.09302192 39.75781313 -1.09556688 37.97265681 -1.09765625 36.1875 C-1.10277222 35.33865234 -1.10788818 34.48980469 -1.11315918 33.61523438 C-1.11464965 22.38303626 -0.46878072 11.25073731 0 0 Z " fill="#F9BDE0" transform="translate(218,258)"/>
<path d="M0 0 C27.06 0 54.12 0 82 0 C82 45.21 82 90.42 82 137 C54.94 137 27.88 137 0 137 C0 91.79 0 46.58 0 0 Z " fill="#461C3A" transform="translate(299,190)"/>
<path d="M0 0 C10.41342925 -0.02312359 20.82685244 -0.04091517 31.24030209 -0.05181217 C36.07516827 -0.05704097 40.91001694 -0.06413854 45.74487305 -0.07543945 C50.4067712 -0.08626847 55.06865246 -0.09227686 59.73056221 -0.09487724 C61.51324288 -0.09673147 63.29592259 -0.10035203 65.07859612 -0.10573006 C67.5666596 -0.11294069 70.05465243 -0.11399093 72.54272461 -0.11352539 C73.28718842 -0.11712067 74.03165222 -0.12071594 74.79867554 -0.12442017 C79.88594784 -0.11405216 79.88594784 -0.11405216 81 1 C81.09417773 3.08619022 81.11742878 5.17560477 81.11352539 7.26391602 C81.11364593 7.92815299 81.11376646 8.59238997 81.11389065 9.27675533 C81.11314176 11.43583921 81.10551468 13.59483773 81.09765625 15.75390625 C81.09664917 17.06999878 81.09564209 18.38609131 81.09460449 19.74206543 C81.08935248 24.68221909 81.07539139 29.62236037 81.0625 34.5625 C81.041875 45.596875 81.02125 56.63125 81 68 C54.93 68 28.86 68 2 68 C2 90.44 2 112.88 2 136 C-24.73 136 -51.46 136 -79 136 C-80.14948694 110.71128731 -80.14948694 110.71128731 -80.09765625 101.7890625 C-80.09664917 100.90694092 -80.09564209 100.02481934 -80.09460449 99.1159668 C-80.08953846 95.95229715 -80.0755844 92.78864664 -80.0625 89.625 C-80.041875 82.48875 -80.02125 75.3525 -80 68 C-53.27 68 -26.54 68 1 68 C0.67 57.44 0.34 46.88 0 36 C-0.05921608 29.32990085 -0.10163241 22.66875293 -0.0625 16 C-0.05744199 14.41145985 -0.05288716 12.82291802 -0.04882812 11.234375 C-0.03823698 7.48954593 -0.02124748 3.7447858 0 0 Z " fill="#F9BDE0" transform="translate(541,122)"/>
<path d="M0 0 C185.46 0 370.92 0 562 0 C562 6.93 562 13.86 562 21 C561.67 21 561.34 21 561 21 C561 14.4 561 7.8 561 1 C402.27 1 243.54 1 80 1 C80 21.79 80 42.58 80 64 C79.505 65.485 79.505 65.485 79 67 C52.93 67 26.86 67 0 67 C0 44.89 0 22.78 0 0 Z " fill="#EC8EC6" transform="translate(59,55)"/>
<path d="M0 0 C27.06 0 54.12 0 82 0 C82 23.1 82 46.2 82 70 C54.61 70 27.22 70 -1 70 C-1 45.86077425 -1 45.86077425 -0.78125 36.23046875 C-0.7615918 35.28836548 -0.74193359 34.34626221 -0.72167969 33.37561035 C-0.65019178 29.97952208 -0.57490444 26.58351463 -0.5 23.1875 C-0.335 15.535625 -0.17 7.88375 0 0 Z " fill="#F9BDE0" transform="translate(217,397)"/>
<path d="M0 0 C0.33 0 0.66 0 1 0 C1 40.59 1 81.18 1 123 C-26.06 123 -53.12 123 -81 123 C-81.020625 113.47125 -81.04125 103.9425 -81.0625 94.125 C-81.071604 91.1358252 -81.08070801 88.14665039 -81.09008789 85.06689453 C-81.09301114 82.67220098 -81.09555873 80.27750692 -81.09765625 77.8828125 C-81.10277222 76.66005615 -81.10788818 75.4372998 -81.11315918 74.17749023 C-81.11328003 72.9808374 -81.11340088 71.78418457 -81.11352539 70.55126953 C-81.115746 69.52534698 -81.11796661 68.49942444 -81.12025452 67.44241333 C-80.96327881 62.94881697 -80.44740229 58.47402289 -80 54 C-53.6 54 -27.2 54 0 54 C0 36.18 0 18.36 0 0 Z " fill="#F494CD" transform="translate(298,273)"/>
<path d="M0 0 C27.06 0 54.12 0 82 0 C82 22.77 82 45.54 82 69 C54.94 69 27.88 69 0 69 C0 46.23 0 23.46 0 0 Z " fill="#F9BDE0" transform="translate(299,327)"/>
<path d="M0 0 C26.4 0 52.8 0 80 0 C80.6803603 4.76252208 81.12317349 8.76816258 81.11352539 13.48608398 C81.11340454 14.74400757 81.11328369 16.00193115 81.11315918 17.29797363 C81.10804321 18.60085327 81.10292725 19.90373291 81.09765625 21.24609375 C81.09664917 22.45785278 81.09564209 23.66961182 81.09460449 24.91809082 C81.08939078 29.42457024 81.07542955 33.93103612 81.0625 38.4375 C81.041875 48.523125 81.02125 58.60875 81 69 C54.27 69 27.54 69 0 69 C0 46.23 0 23.46 0 0 Z " fill="#F9BDE0" transform="translate(544,258)"/>
<path d="M0 0 C0.33 0 0.66 0 1 0 C1.0154612 1.23550598 1.0154612 1.23550598 1.03123474 2.49597168 C1.13047531 10.37639822 1.23313229 18.256772 1.33933926 26.13710785 C1.393788 30.1854602 1.44705465 34.23381987 1.49731445 38.28222656 C1.69709784 54.31379905 1.92280147 70.32813742 2.66622925 86.34570312 C2.99230661 93.40439292 3.12525612 100.43269532 3.0625 107.5 C3.05798828 108.53640625 3.05347656 109.5728125 3.04882812 110.640625 C3.03747072 113.09382533 3.021363 115.54687041 3 118 C2.67 118 2.34 118 2 118 C2 115.36 2 112.72 2 110 C0.99997452 110.00222061 -0.00005096 110.00444122 -1.03038025 110.00672913 C-10.43368339 110.02696068 -19.83698215 110.0419722 -29.24030209 110.05181217 C-34.07516827 110.05704097 -38.91001694 110.06413854 -43.74487305 110.07543945 C-48.4067712 110.08626847 -53.06865246 110.09227686 -57.73056221 110.09487724 C-59.51324288 110.09673147 -61.29592259 110.10035203 -63.07859612 110.10573006 C-65.5666596 110.11294069 -68.05465243 110.11399093 -70.54272461 110.11352539 C-71.65942032 110.1189183 -71.65942032 110.1189183 -72.79867554 110.12442017 C-77.88594784 110.11405216 -77.88594784 110.11405216 -79 109 C-79.09413687 106.94443339 -79.11742998 104.88559819 -79.11352539 102.82788086 C-79.11364593 102.17355607 -79.11376646 101.51923128 -79.11389065 100.84507847 C-79.11314179 98.71829948 -79.10551481 96.59160715 -79.09765625 94.46484375 C-79.09664917 93.16840942 -79.09564209 91.8719751 -79.09460449 90.53625488 C-79.08935257 85.66999432 -79.07539147 80.80374632 -79.0625 75.9375 C-79.041875 65.068125 -79.02125 54.19875 -79 43 C-52.93 43 -26.86 43 0 43 C0 28.81 0 14.62 0 0 Z " fill="#F493CC" transform="translate(622,147)"/>
<path d="M0 0 C26.73 0 53.46 0 81 0 C81.020625 10.1475 81.04125 20.295 81.0625 30.75 C81.071604 33.95041992 81.08070801 37.15083984 81.09008789 40.44824219 C81.09300813 42.98111936 81.09555644 45.51399701 81.09765625 48.046875 C81.10277222 49.36510254 81.10788818 50.68333008 81.11315918 52.04150391 C81.11334045 53.92893311 81.11334045 53.92893311 81.11352539 55.85449219 C81.115746 56.94703308 81.11796661 58.03957397 81.12025452 59.16522217 C81 62 81 62 80 66 C53.6 66 27.2 66 0 66 C0 44.22 0 22.44 0 0 Z " fill="#F9BDE0" transform="translate(139,56)"/>
<path d="M0 0 C26.07 0 52.14 0 79 0 C79 22.11 79 44.22 79 67 C52.6 67 26.2 67 -1 67 C-1.020625 60.02875 -1.04125 53.0575 -1.0625 45.875 C-1.071604 43.72597168 -1.08070801 41.57694336 -1.09008789 39.36279297 C-1.09302057 37.57259177 -1.09556587 35.78238988 -1.09765625 33.9921875 C-1.10277222 33.13310791 -1.10788818 32.27402832 -1.11315918 31.38891602 C-1.1145519 20.89059405 -0.47840453 10.52489967 0 0 Z " fill="#F9BDE0" transform="translate(59,123)"/>
<path d="M0 0 C0.495 1.98 0.495 1.98 1 4 C55.12 4 109.24 4 165 4 C165 4.33 165 4.66 165 5 C110.88 5 56.76 5 1 5 C1 21.17 1 37.34 1 54 C0.67 54 0.34 54 0 54 C0 37.83 0 21.66 0 5 C-26.4 5 -52.8 5 -80 5 C-80 4.67 -80 4.34 -80 4 C-53.6 4 -27.2 4 0 4 C0 2.68 0 1.36 0 0 Z " fill="#F7ACD8" transform="translate(216,392)"/>
<path d="M0 0 C0.495 1.485 0.495 1.485 1 3 C27.4 3 53.8 3 81 3 C81 3.33 81 3.66 81 4 C54.6 4 28.2 4 1 4 C1 13.57 1 23.14 1 33 C0.67 33 0.34 33 0 33 C0 23.43 0 13.86 0 4 C-26.07 4 -52.14 4 -79 4 C-79 11.26 -79 18.52 -79 26 C-79.33 26 -79.66 26 -80 26 C-80 18.41 -80 10.82 -80 3 C-53.6 3 -27.2 3 0 3 C0 2.01 0 1.02 0 0 Z " fill="#F5ACD7" transform="translate(138,119)"/>
</svg>
