<?xml version="1.0" encoding="UTF-8"?>
<svg version="1.1" xmlns="http://www.w3.org/2000/svg" width="1024" height="440">
<path d="M0 0 C320.1 0 640.2 0 970 0 C973.47569193 35.91548327 973.47569193 35.91548327 974.89633179 52.33737183 C975.05388758 54.15560518 975.05388758 54.15560518 975.21462631 56.01057053 C975.32322102 57.26432102 975.43181572 58.51807152 975.54370117 59.80981445 C975.71977577 61.83444364 975.89608782 63.85905206 976.07242914 65.88365803 C976.89922526 75.37658176 977.72157843 84.86988846 978.54296875 94.36328125 C978.60807798 95.11565472 978.67318721 95.86802818 978.74026945 96.64320084 C980.04056504 111.66904759 981.33916526 126.69504048 982.63402843 141.72135639 C982.91606945 144.99400858 983.19813347 148.26665878 983.48022461 151.53930664 C983.55030286 152.35232816 983.62038111 153.16534968 983.69258294 154.00300821 C984.82993077 167.19520196 985.97609725 180.38661462 987.12573632 193.57774232 C988.31390526 207.21286375 989.49354872 220.84870297 990.66522008 234.48525208 C991.32015897 242.10523243 991.97869331 249.72486204 992.64699364 257.34368324 C993.21526192 263.82222015 993.77572716 270.30137594 994.32661458 276.78141484 C994.60662175 280.07240151 994.89116824 283.36280927 995.18336487 286.65274811 C996.32176389 299.49463623 997.19428029 312.26915298 997.25300598 325.16644287 C997.26076874 326.21870019 997.2685315 327.2709575 997.27652949 328.35510141 C997.22655176 337.83067608 995.31140479 346.23361505 992.46875 355.21484375 C991.99157115 356.81602018 991.51757884 358.41814914 991.04650879 360.02113342 C989.81797618 364.1713527 988.54829783 368.30772065 987.26794434 372.44219971 C985.99426777 376.58078808 984.76047522 380.73120321 983.5234375 384.88085938 C981.67965303 391.0509273 979.81419654 397.21369472 977.92773438 403.37084961 C974.22123483 415.56131395 970.61970853 427.78348373 967 440 C739.63 440 512.26 440 278 440 C276.73214206 433.02678131 275.54653455 426.14489886 274.65551758 419.12915039 C274.53657639 418.21047684 274.41763519 417.29180328 274.29508972 416.34529114 C273.90806125 413.34651769 273.52573988 410.34717479 273.14453125 407.34765625 C273.0127265 406.31359587 272.88092175 405.27953548 272.74512291 404.21413994 C272.04885996 398.7477886 271.35653512 393.28095436 270.66723633 387.8137207 C269.95815302 382.19647518 269.23470583 376.58117661 268.50806141 370.96617985 C267.94819159 366.61838319 267.39936561 362.26924198 266.85342979 357.91967583 C266.59165566 355.84969815 266.32575558 353.78023758 266.05549049 351.71135139 C265.67735342 348.80899565 265.31507882 345.90504783 264.95629883 343.00024414 C264.84363678 342.16299805 264.73097473 341.32575195 264.61489868 340.46313477 C263.78968858 333.56518614 264.39390518 328.27313779 265 321 C227.05 321 189.1 321 150 321 C149.67 329.58 149.34 338.16 149 347 C148.63301034 354.29053938 148.25361534 361.57911444 147.84375 368.8671875 C147.73538974 370.8158421 147.62711536 372.76450147 147.5189209 374.71316528 C147.29526186 378.73106646 147.06985933 382.74886509 146.84326172 386.76660156 C146.55326831 391.91287474 146.26899646 397.05944756 145.98607635 402.20611382 C145.76568903 406.20045947 145.54178207 410.194602 145.31684875 414.188694 C145.21037221 416.08883997 145.10512356 417.98905518 145.00114441 419.88933945 C144.856649 422.52263957 144.70727615 425.15561919 144.55664062 427.78857422 C144.51505325 428.56556168 144.47346588 429.34254913 144.43061829 430.14308167 C144.2283665 433.59474692 143.84304233 436.6278307 143 440 C96.8 440 50.6 440 3 440 C-6.94054421 406.26841999 -6.94054421 406.26841999 -10.66012573 393.54472351 C-13.87794963 382.53863229 -17.10576931 371.5418988 -20.5546875 360.60546875 C-21.24932586 358.35693863 -21.94078272 356.10746982 -22.63018799 353.85733032 C-23.21384761 351.99062533 -23.83498676 350.13575754 -24.45849609 348.28198242 C-26.80135606 340.57543403 -27.26774542 333.44748608 -27.24095154 325.43388367 C-27.2379874 324.29955263 -27.23502326 323.16522159 -27.2319693 321.99651688 C-27.10209449 308.74185016 -25.98621075 295.57985511 -24.81654131 282.3838383 C-24.49138862 278.68680064 -24.17936481 274.98864867 -23.86555481 271.29063416 C-23.25260617 264.09072812 -22.62814188 256.89186787 -21.99962933 249.69330565 C-21.26677429 241.29369716 -20.54633211 232.89303694 -19.82642763 224.49231025 C-18.54194074 209.50753441 -17.247364 194.52364838 -15.9465332 179.5402832 C-14.68606312 165.02161069 -13.43142115 150.50245174 -12.18383789 135.98266602 C-12.10674141 135.08540799 -12.02964493 134.18814997 -11.95021219 133.26370231 C-11.64027046 129.65638135 -11.33034809 126.04905873 -11.02045644 122.44173347 C-9.68400006 106.88610978 -8.34308405 91.33087002 -7.00131139 75.77570412 C-6.78466209 73.26380176 -6.56809926 70.75189195 -6.35155034 68.23998094 C-5.5942548 59.45698002 -4.83553459 50.67410528 -4.07308681 41.89154998 C-3.75810695 38.26333006 -3.44369802 34.63506346 -3.13096619 31.00664902 C-2.79192757 27.07352241 -2.4497932 23.14066866 -2.10731506 19.20783997 C-2.00906325 18.06311669 -1.91081143 16.91839341 -1.80958229 15.73898154 C-1.71702296 14.68212612 -1.62446363 13.6252707 -1.52909946 12.53638935 C-1.4111963 11.17629748 -1.4111963 11.17629748 -1.29091126 9.78872901 C-0.94944082 6.51533035 -0.46544045 3.25808318 0 0 Z " fill="#441B39" transform="translate(27,0)"/>
<path d="M0 0 C30.68495243 -0.0227899 61.36990294 -0.04049793 92.05486181 -0.05106533 C95.67370021 -0.05231611 99.29253858 -0.05361042 102.91137695 -0.05493164 C103.6318528 -0.05519395 104.35232865 -0.05545626 105.0946371 -0.05572652 C116.77574418 -0.06008331 128.45684636 -0.06797091 140.13795053 -0.0771528 C152.11495649 -0.08648908 164.09195987 -0.09205555 176.06896931 -0.09408849 C182.80000169 -0.09534006 189.53102383 -0.09836182 196.26205254 -0.10573006 C202.58942067 -0.11248605 208.91677304 -0.11461783 215.24414444 -0.11310768 C217.57387058 -0.1133842 219.90359721 -0.11539181 222.23332024 -0.11920547 C225.39905111 -0.12413615 228.56472139 -0.12300061 231.73045349 -0.12025452 C233.13266204 -0.12462378 233.13266204 -0.12462378 234.56319803 -0.12908131 C240.88587879 -0.11412121 240.88587879 -0.11412121 242 1 C242.26741125 3.17064818 242.47031682 5.34926024 242.6484375 7.52905273 C242.70549866 8.21229614 242.76255981 8.89553955 242.8213501 9.5994873 C243.01037332 11.87717886 243.19277827 14.15534871 243.375 16.43359375 C243.50536672 18.02574828 243.63606842 19.61787541 243.76708984 21.2099762 C244.04221586 24.56497251 244.31425661 27.92020022 244.58398438 31.27563477 C244.92558322 35.5239442 245.2730662 39.77174403 245.62277222 44.01939297 C245.89408969 47.32006057 246.16290979 50.62092799 246.43096924 53.92186165 C246.55796375 55.48399475 246.6855057 57.04608346 246.81365967 58.60812187 C247.56016465 67.73423359 248.20029232 76.85718948 248.66747284 86.00224972 C248.94731614 91.42484538 249.41460125 96.79794221 250.0625 102.1875 C250.24449934 103.722232 250.42294963 105.25738949 250.59765625 106.79296875 C250.67508057 107.4377417 250.75250488 108.08251465 250.83227539 108.74682617 C251.06127933 111.82321244 251 114.91510206 251 118 C239.45 118 227.9 118 216 118 C216.33 120.31 216.66 122.62 217 125 C217.13352982 126.83019997 217.24046277 128.66260125 217.31640625 130.49609375 C217.37924805 131.95112305 217.37924805 131.95112305 217.44335938 133.43554688 C217.48267578 134.42619141 217.52199219 135.41683594 217.5625 136.4375 C217.62727539 137.96407227 217.62727539 137.96407227 217.69335938 139.52148438 C217.79868582 142.01421028 217.90081672 144.50702338 218 147 C219.05501709 146.99476318 220.11003418 146.98952637 221.19702148 146.98413086 C225.0975663 146.96608099 228.9981074 146.95456805 232.89868164 146.94506836 C234.58944316 146.9400281 236.28020029 146.93319595 237.97094727 146.92456055 C240.39600707 146.91248143 242.82100944 146.90676877 245.24609375 146.90234375 C246.38672523 146.89460182 246.38672523 146.89460182 247.55039978 146.88670349 C249.3673257 146.88650762 251.18413127 146.93802723 253 147 C254.80483525 148.80483525 254.32343981 151.58470759 254.46484375 154.02734375 C254.54154297 155.28530762 254.61824219 156.54327148 254.69726562 157.83935547 C254.73634033 158.50819763 254.77541504 159.17703979 254.81567383 159.8661499 C255.62585567 173.64435452 255.62585567 173.64435452 257 187.375 C258.69601679 201.49174728 259.84623705 215.67225827 260.5 229.875 C260.76659494 235.5923087 261.19134354 241.2528218 261.875 246.9375 C262.92006189 255.64668991 263.68160648 264.37681848 264.41851807 273.1164856 C264.55492562 274.73238892 264.6927171 276.34817608 264.83197021 277.96383667 C265.03007077 280.26853764 265.22282895 282.57362639 265.4140625 284.87890625 C265.47333923 285.56280426 265.53261597 286.24670227 265.59368896 286.95132446 C266.00416325 292.01833301 266 296.87159704 266 302 C230.03 302 194.06 302 157 302 C156.01 287.48 155.02 272.96 154 258 C153.2108019 249.03801782 153.2108019 249.03801782 152.3984375 240.078125 C151.83090236 233.39847179 151.62839628 226.70445914 151.39624023 220.00634766 C151.09509791 211.91984902 150.46082075 203.88769039 149.66015625 195.8359375 C149.53253906 194.51335937 149.53253906 194.51335937 149.40234375 193.1640625 C149.32491943 192.40561035 149.24749512 191.6471582 149.16772461 190.86572266 C148.91713106 186.58411111 149 182.28893863 149 178 C137.45 178 125.9 178 114 178 C114.17015625 180.52011719 114.3403125 183.04023438 114.515625 185.63671875 C116.1409533 209.9132491 117.6329376 234.19692093 119.05131531 258.48630142 C119.1872128 260.80759427 119.32412105 263.1288255 119.46130371 265.45004272 C119.67989516 269.15172751 119.89568318 272.85356575 120.10934639 276.55553818 C120.22686033 278.58229687 120.34678285 280.60891547 120.46678162 282.63552856 C120.57253258 284.48620438 120.57253258 284.48620438 120.68041992 286.37426758 C120.74243088 287.44131424 120.80444183 288.5083609 120.86833191 289.60774231 C121.02855256 293.73561977 121 297.86901428 121 302 C85.03 302 49.06 302 12 302 C11.23387036 298.93548143 10.84127893 296.65599558 10.71875 293.57495117 C10.68197647 292.69871597 10.64520294 291.82248077 10.60731506 290.91969299 C10.57190109 289.97037399 10.53648712 289.02105499 10.5 288.04296875 C10.45971176 287.04373886 10.41942352 286.04450897 10.37791443 285.01499939 C10.24745279 281.73932538 10.12352576 278.46344233 10 275.1875 C9.91162492 272.9262662 9.82316398 270.66503575 9.73461914 268.40380859 C9.13124426 252.73489766 8.65507067 237.06487745 8.34179688 221.38745117 C8.3255275 220.63508682 8.30925812 219.88272247 8.29249573 219.1075592 C8.24987281 217.12140989 8.21152061 215.13517013 8.17358398 213.14892578 C8.07510461 210.02368704 7.82598767 206.93045314 7.54101562 203.81689453 C6.73921654 194.55710558 6.46009246 185.26948446 6.09765625 175.984375 C6.01495596 173.91067354 5.93208666 171.83697882 5.84906006 169.76329041 C5.62859186 164.23440339 5.41187186 158.70537583 5.19629288 153.17629623 C5.06220284 149.74238994 4.92714797 146.3085228 4.7918396 142.87466431 C3.47791498 109.49275566 2.2698585 76.11022942 1.31260204 42.71609783 C1.04814635 33.52745875 0.76410199 24.33951014 0.4753418 15.15161133 C0.42894862 13.67180678 0.38256946 12.19200179 0.33620453 10.71219635 C0.22429721 7.14145917 0.11220273 3.57072791 0 0 Z " fill="#F49ED1" transform="translate(736,23)"/>
<path d="M0 0 C1.39534894 0.00334608 1.39534894 0.00334608 2.81888676 0.00675976 C3.79908818 0.00519977 4.77928961 0.00363978 5.78919411 0.00203252 C9.1004575 -0.00198205 12.41167569 0.00121392 15.72293949 0.00434887 C18.0859667 0.00299504 20.4489937 0.0012152 22.8120203 -0.00096118 C28.58010309 -0.0050615 34.34817132 -0.00444225 40.11625457 -0.00154854 C44.80205533 0.00070535 49.48785245 0.00101807 54.1736536 -0.00007236 C55.17214733 -0.00030221 55.17214733 -0.00030221 56.19081265 -0.0005367 C57.54288538 -0.00085641 58.89495812 -0.00118062 60.24703085 -0.00150929 C72.94005256 -0.00436419 85.63306707 -0.00107691 98.32608759 0.00429107 C109.22888298 0.00875912 120.13166773 0.00798319 131.03446293 0.00337231 C143.68054568 -0.00197328 156.32662211 -0.0040895 168.97270584 -0.00101542 C170.31994152 -0.00069686 171.6671772 -0.00038249 173.01441288 -0.00007236 C174.00883903 0.00015905 174.00883903 0.00015905 175.02335459 0.00039514 C179.70618692 0.00126034 184.38901525 -0.00020265 189.07184696 -0.00255191 C195.36886294 -0.00542934 201.66585872 -0.00345731 207.96287251 0.00234234 C210.28131037 0.00367064 212.59974993 0.00327467 214.91818714 0.00107968 C218.06854138 -0.00162913 221.21882975 0.00174598 224.36917973 0.00675976 C225.29941236 0.00452904 226.22964499 0.00229832 227.18806648 0 C233.47988343 0.0195936 233.47988343 0.0195936 234.59403324 1.13374341 C236.3848747 20.3244889 235.59403324 39.9948846 235.59403324 59.13374341 C189.72403324 59.13374341 143.85403324 59.13374341 96.59403324 59.13374341 C96.92403324 78.27374341 97.25403324 97.41374341 97.59403324 117.13374341 C144.12403324 117.46374341 190.65403324 117.79374341 238.59403324 118.13374341 C239.41288488 137.78618272 239.59403324 157.46425208 239.59403324 177.13374341 C193.06403324 177.13374341 146.53403324 177.13374341 98.59403324 177.13374341 C98.59403324 197.59374341 98.59403324 218.05374341 98.59403324 239.13374341 C146.11403324 239.13374341 193.63403324 239.13374341 242.59403324 239.13374341 C243.50632986 260.11656557 243.59403324 281.13109807 243.59403324 302.13374341 C160.10403324 302.13374341 76.61403324 302.13374341 -9.40596676 302.13374341 C-9.42659176 281.65311841 -9.44721676 261.17249341 -9.46846676 240.07124341 C-9.47757076 233.73284253 -9.48667477 227.39444165 -9.49605465 220.86396801 C-9.51930067 192.72230947 -9.38067756 164.60115673 -8.79477596 136.46426404 C-8.44483874 119.52370724 -8.24980007 102.5852176 -8.12471676 85.64155591 C-8.11516397 84.38388724 -8.10561119 83.12621857 -8.09576893 81.83043873 C-8.00871397 70.32741641 -7.92930508 58.82434637 -7.85372066 47.32124341 C-7.81130395 40.91010506 -7.76416906 34.49901552 -7.71408749 28.08793271 C-7.69626185 25.67727354 -7.68032289 23.26659964 -7.66632748 20.85591519 C-7.64711144 17.54759637 -7.62196803 14.23937354 -7.59541988 10.93110669 C-7.59123547 9.9457745 -7.58705105 8.96044232 -7.58273983 7.94525158 C-7.57439617 7.055733 -7.56605251 6.16621441 -7.55745602 5.24974072 C-7.55230228 4.47404799 -7.54714855 3.69835526 -7.54183865 2.89915669 C-7.21528144 -1.3438728 -3.40172038 0.01059343 0 0 Z " fill="#F49FD2" transform="translate(467.405966758728,22.866256594657898)"/>
<path d="M0 0 C79.86 0 159.72 0 242 0 C240.94508273 46.41636005 240.94508273 46.41636005 239.65634155 68.83937073 C238.64667544 86.86872861 238.22598771 104.92892794 237.69750977 122.97753906 C237.33568067 135.32355778 236.96771879 147.66904055 236.50390625 160.01171875 C236.4682103 161.02547073 236.43251434 162.03922272 236.39573669 163.08369446 C236.35868118 164.02762558 236.32162567 164.9715567 236.28344727 165.9440918 C236.2527565 166.75629684 236.22206573 167.56850189 236.19044495 168.40531921 C235.95453544 171.61942318 235.45576568 174.80964026 235 178 C164.71 178.495 164.71 178.495 93 179 C92.34 191.87 91.68 204.74 91 218 C89.9375 230.9375 89.9375 230.9375 89.43359375 236.5234375 C88.85211101 243.35616699 88.63674271 250.19833409 88.39428711 257.04980469 C88.05744296 265.91106109 87.32864521 274.71577672 86.5 283.54296875 C85.93679269 289.68984854 85.47341894 295.84555379 85 302 C49.03 302 13.06 302 -24 302 C-22.84107579 277.66259169 -22.84107579 277.66259169 -22 268.0625 C-21.9175 267.06283203 -21.835 266.06316406 -21.75 265.03320312 C-21.43675502 261.3550218 -21.12576812 257.72899042 -20.49780273 254.08911133 C-19.97968951 250.87396339 -19.72712385 247.7270886 -19.53515625 244.4765625 C-19.45837646 243.21900146 -19.38159668 241.96144043 -19.30249023 240.66577148 C-19.26340546 240.00616425 -19.22432068 239.34655701 -19.18405151 238.66696167 C-18.54403113 227.91516552 -17.8279455 217.17179941 -16.9375 206.4375 C-16.85830322 205.46441895 -16.77910645 204.49133789 -16.69750977 203.48876953 C-16.58234009 202.13114502 -16.58234009 202.13114502 -16.46484375 200.74609375 C-16.399021 199.96935303 -16.33319824 199.1926123 -16.26538086 198.39233398 C-16.06926126 196.62437083 -15.80335764 194.86383347 -15.5 193.11108398 C-14.98204897 189.88830565 -14.72756465 186.73455242 -14.53515625 183.4765625 C-14.45837646 182.21900146 -14.38159668 180.96144043 -14.30249023 179.66577148 C-14.26340546 179.00616425 -14.22432068 178.34655701 -14.18405151 177.66696167 C-13.54403113 166.91516552 -12.8279455 156.17179941 -11.9375 145.4375 C-11.85830322 144.46441895 -11.77910645 143.49133789 -11.69750977 142.48876953 C-11.58234009 141.13114502 -11.58234009 141.13114502 -11.46484375 139.74609375 C-11.399021 138.96935303 -11.33319824 138.1926123 -11.26538086 137.39233398 C-10.95346685 134.58051675 -10.46509535 131.79057213 -10 129 C-9.34 118.77 -8.68 108.54 -8 98 C-5.36 65.66 -2.72 33.32 0 0 Z " fill="#F49FD2" transform="translate(46,23)"/>
<path d="M0 0 C34.32 0 68.64 0 104 0 C103.51003794 33.57993639 103.01819815 67.15984291 102.52233625 100.73969257 C102.46352045 104.72286442 102.40472696 108.7060366 102.34594727 112.68920898 C102.33424712 113.4820375 102.32254697 114.27486601 102.31049227 115.09171963 C102.12221016 127.85372809 101.93572611 140.6157622 101.74993116 153.37780707 C101.55860969 166.51664913 101.36529894 179.65546088 101.17022032 192.79424769 C101.05034217 200.87225355 100.93193385 208.95027799 100.8155347 217.02833474 C100.7350781 222.60156963 100.65265354 228.17477346 100.56882221 233.74795859 C100.52083413 236.94182543 100.47387401 240.13570079 100.42870712 243.32960892 C100.15593799 262.56390684 99.58278174 281.76820252 99 301 C63.36 301 27.72 301 -9 301 C-9 253.85689696 -9 253.85689696 -8.37329102 236.41381836 C-8.30536928 234.37466319 -8.23805029 232.33548787 -8.17126465 230.29629517 C-7.99349077 224.91949818 -7.80745645 219.54302015 -7.61942792 214.16657329 C-7.42157531 208.46892266 -7.23145233 202.77101293 -7.04026794 197.07313538 C-6.7195267 187.54574709 -6.39370044 178.01854458 -6.06420898 168.49145508 C-5.64287481 156.3080084 -5.23022068 144.12428337 -4.82019138 131.94045162 C-4.46428911 121.36704715 -4.10445906 110.79377685 -3.74399829 100.22052693 C-3.62965537 96.86184833 -3.51584114 93.50315213 -3.40210152 90.14445305 C-3.22296617 84.86208803 -3.04136094 79.57981309 -2.85791779 74.29759598 C-2.79144692 72.37407744 -2.72571857 70.45053305 -2.66083336 68.52696037 C-2.57135506 65.8787705 -2.47900657 63.23069441 -2.38600159 60.58262634 C-2.36167779 59.84399052 -2.33735399 59.1053547 -2.31229311 58.34433597 C-2.03234263 50.54704503 -1.48734493 42.79751892 -1 35 C-0.67 23.45 -0.34 11.9 0 0 Z " fill="#F59FD2" transform="translate(322,24)"/>
<path d="M0 0 C83.49 0 166.98 0 253 0 C252.3568559 10.29030554 251.60951912 20.41565192 250.40625 30.6328125 C250.25268688 31.96640987 250.09958103 33.30005996 249.94689941 34.63375854 C249.54957183 38.09738541 249.1479137 41.56049259 248.74468994 45.0234375 C248.09909216 50.56826737 247.45730063 56.11352158 246.82121277 61.65945053 C246.60171349 63.56372495 246.37838231 65.46755648 246.15490723 67.37136841 C246.01806519 68.55995453 245.88122314 69.74854065 245.74023438 70.97314453 C245.56155823 72.50625778 245.56155823 72.50625778 245.37927246 74.07034302 C244.80341471 80.03682796 244.42706979 86.02102299 244 92 C164.14 92 84.28 92 2 92 C0 22 0 22 0 0 Z " fill="#7F4668" transform="translate(458,325)"/>
<path d="M0 0 C0.33 0 0.66 0 1 0 C1.01458252 1.27149902 1.02916504 2.54299805 1.04418945 3.85302734 C1.39818704 32.84143967 2.32477357 61.74654731 3.98364258 90.69091797 C4.05008972 91.86932755 4.11653687 93.04773712 4.18499756 94.26185608 C4.30853127 96.43677071 4.43584957 98.61147605 4.56817627 100.78587341 C5.0322639 108.89914603 5 116.83017338 5 125 C-29.32 125 -63.64 125 -99 125 C-99.33 120.38 -99.66 115.76 -100 111 C-100.46764299 107.9896748 -100.93702528 104.97955644 -101.42919922 101.97314453 C-102.89154664 92.35710238 -103.61299391 82.61432151 -104.5625 72.9375 C-104.8934803 69.570648 -105.22552484 66.20392064 -105.56126404 62.83753967 C-105.76889515 60.75549347 -105.97381379 58.6731745 -106.17567444 56.59056091 C-106.31603371 55.18242882 -106.31603371 55.18242882 -106.45922852 53.74584961 C-106.58008568 52.51226967 -106.58008568 52.51226967 -106.7033844 51.25376892 C-106.9977774 48.68624608 -106.9977774 48.68624608 -108 45 C-108 41.04 -108 37.08 -108 33 C-72.36 33 -36.72 33 0 33 C0 22.11 0 11.22 0 0 Z " fill="#7E4567" transform="translate(421,292)"/>
<path d="M0 0 C0.33 0 0.66 0 1 0 C1.02578125 1.12792969 1.0515625 2.25585938 1.078125 3.41796875 C1.52206183 17.05547383 3.26526273 30.46453871 7.03515625 43.609375 C8.2960833 48.04048707 9.06509664 52.50527963 9.85546875 57.0390625 C10.42492929 60.2108965 11.07022415 63.24238659 11.96875 66.34375 C13.538168 71.9080502 14.47078804 77.57693082 15.5 83.26171875 C16.22098364 87.16516924 16.97390523 90.9137423 18.125 94.71875 C19 98 19 98 19 105 C-14.99 105 -48.98 105 -84 105 C-88.5803407 88.96880755 -88.5803407 88.96880755 -90.4375 82.25 C-90.64576416 81.49887939 -90.85402832 80.74775879 -91.06860352 79.97387695 C-91.91810716 76.90985799 -92.76635008 73.84549274 -93.61328125 70.78076172 C-94.22069012 68.58282334 -94.82881783 66.38508609 -95.4375 64.1875 C-95.63891602 63.46030762 -95.84033203 62.73311523 -96.04785156 61.98388672 C-97.9713356 55.06205333 -99.9497985 48.15609899 -101.94506836 41.25463867 C-104.63569724 31.90331756 -106.80997488 22.49010886 -109 13 C-73.03 13 -37.06 13 0 13 C0 8.71 0 4.42 0 0 Z " fill="#7E4567" transform="translate(131,312)"/>
<path d="M0 0 C35.64 0 71.28 0 108 0 C106.87257111 11.27428893 106.87257111 11.27428893 106.16796875 15.375 C106.01134766 16.28765625 105.85472656 17.2003125 105.69335938 18.140625 C105.44295898 19.55601562 105.44295898 19.55601562 105.1875 21 C105.01154297 22.00546875 104.83558594 23.0109375 104.65429688 24.046875 C103.4509994 30.79561816 102.05080363 37.47409371 100.50073242 44.15039062 C98.91297127 51.10526444 97.70931339 58.11515359 96.5703125 65.15625 C95.06788206 74.2235495 93.00685604 82.96914781 91 92 C57.01 92 23.02 92 -12 92 C-12 86.06827451 -11.88249426 80.99094682 -11.11376953 75.22045898 C-11.01944641 74.50047729 -10.92512329 73.78049561 -10.82794189 73.03869629 C-10.51870859 70.69034921 -10.20103403 68.34323833 -9.8828125 65.99609375 C-9.66301862 64.34665434 -9.44361415 62.697163 -9.22457886 61.04762268 C-8.76593672 57.60358091 -8.30320178 54.16012189 -7.83740234 50.71704102 C-7.2429755 46.32133596 -6.65789906 41.92444816 -6.07577705 37.52709866 C-5.62450968 34.12500538 -5.16873284 30.723528 -4.71157455 27.32222176 C-4.49423288 25.70180277 -4.27815906 24.08121317 -4.06341934 22.46044731 C-3.76177954 20.18971516 -3.45417095 17.91986659 -3.14501953 15.65014648 C-2.97181183 14.36269028 -2.79860413 13.07523407 -2.62014771 11.74876404 C-1.96527741 7.79010357 -0.97316487 3.8926595 0 0 Z " fill="#7E4567" transform="translate(748,325)"/>
<path d="M0 0 C0.33 0 0.66 0 1 0 C1 3.96 1 7.92 1 12 C36.97 12 72.94 12 110 12 C107 25 107 25 105 30 C104.46572513 32.15847048 103.96729855 34.32604588 103.5 36.5 C102.63064351 40.5443976 101.53240856 44.16897861 100 48 C99.46572513 50.15847048 98.96729855 52.32604588 98.5 54.5 C97.83872657 57.57635901 97.21382337 60.47445823 96.02734375 63.390625 C94.63384079 66.93001656 93.88284145 70.54238234 93.0625 74.25 C90.97728452 83.41195792 90.97728452 83.41195792 89.4375 87.8125 C87.6209174 93.10428411 86.35696355 98.57214579 85 104 C51.01 104 17.02 104 -18 104 C-16.88288288 90.59459459 -16.88288288 90.59459459 -15.0625 84 C-13.52598065 78.24459814 -12.33547337 72.54556661 -11.42578125 66.65234375 C-10.92771563 63.5497148 -10.26732922 60.50941765 -9.55859375 57.44921875 C-8.87526424 54.45308169 -8.25380084 51.44554724 -7.625 48.4375 C-6.35170359 42.44780974 -4.91305049 36.51522767 -3.35791016 30.59350586 C-1.47008848 23.27608361 -0.80684461 16.07654365 -0.4375 8.5625 C-0.39431641 7.73556641 -0.35113281 6.90863281 -0.30664062 6.05664062 C-0.20161967 4.03790451 -0.10041441 2.01897049 0 0 Z " fill="#7E4567" transform="translate(892,313)"/>
<path d="M0 0 C11.88 0 23.76 0 36 0 C36.71885606 4.31313635 37.11972133 7.77406233 37.09765625 12.0546875 C37.09515869 13.05483887 37.09266113 14.05499023 37.09008789 15.08544922 C37.08098389 16.33600098 37.07187988 17.58655273 37.0625 18.875 C37.041875 22.87625 37.02125 26.8775 37 31 C25.78 31 14.56 31 3 31 C3.495 37.435 3.495 37.435 4 44 C4 49.94 4 55.88 4 62 C-7.88 62 -19.76 62 -32 62 C-32.33 58.555625 -32.66 55.11125 -33 51.5625 C-33.10441406 50.49588135 -33.20882812 49.4292627 -33.31640625 48.33032227 C-33.39761719 47.45947998 -33.47882812 46.5886377 -33.5625 45.69140625 C-33.64628906 44.81685791 -33.73007812 43.94230957 -33.81640625 43.04125977 C-34.05829497 39.03433448 -34 35.01421977 -34 31 C-22.12 31 -10.24 31 2 31 C1.505 28.03 1.505 28.03 1 25 C0.86090105 22.98380951 0.7564684 20.96498126 0.68359375 18.9453125 C0.62643188 17.44508545 0.62643188 17.44508545 0.56811523 15.91455078 C0.52501221 14.66399902 0.48190918 13.41344727 0.4375 12.125 C0.293125 8.12375 0.14875 4.1225 0 0 Z " fill="#F9BCE0" transform="translate(961,262)"/>
<path d="M0 0 C11.22 0 22.44 0 34 0 C33.5625 10.875 33.5625 10.875 33.41430664 14.5324707 C33.17750085 20.41053649 32.9516618 26.28872245 32.74609375 32.16796875 C32.70476318 33.32248535 32.66343262 34.47700195 32.62084961 35.66650391 C32.54195488 37.8835255 32.4658207 40.10064753 32.39282227 42.31787109 C32.35600342 43.3383252 32.31918457 44.3587793 32.28125 45.41015625 C32.25095703 46.29840088 32.22066406 47.18664551 32.18945312 48.10180664 C31.95108229 51.74832753 31.45326058 55.37391532 31 59 C19.45 59 7.9 59 -4 59 C-4 39.42795048 -4 39.42795048 -3.37890625 31.9140625 C-3.31468979 31.07958588 -3.25047333 30.24510925 -3.18431091 29.38534546 C-3.05039757 27.66322657 -2.9133898 25.94134534 -2.77319336 24.21972656 C-2.55879324 21.57935056 -2.35589387 18.93825662 -2.15429688 16.296875 C-2.02149219 14.60671893 -1.88805349 12.91661254 -1.75390625 11.2265625 C-1.6934462 10.44229889 -1.63298615 9.65803528 -1.57069397 8.8500061 C-1.31217677 5.72249707 -0.99661746 2.98985239 0 0 Z " fill="#471D3C" transform="translate(147,82)"/>
<path d="M0 0 C11.22 0 22.44 0 34 0 C36.24817134 12.36494238 36.24817134 12.36494238 36.37890625 17.078125 C36.41306641 18.09390625 36.44722656 19.1096875 36.48242188 20.15625 C36.50884766 21.1771875 36.53527344 22.198125 36.5625 23.25 C36.6229397 25.31780935 36.68665654 27.38552593 36.75390625 29.453125 C36.77783447 30.35192383 36.8017627 31.25072266 36.82641602 32.17675781 C37.02878933 35.46824164 37.53363489 38.73544424 38 42 C38 47.61 38 53.22 38 59 C26.45 59 14.9 59 3 59 C2.570217 52.04416672 2.14212082 45.08827106 1.71826172 38.13208008 C1.57373547 35.76841309 1.42824106 33.40480507 1.28173828 31.04125977 C1.07065955 27.63312797 0.86312718 24.22479536 0.65625 20.81640625 C0.59062866 19.76916885 0.52500732 18.72193146 0.45739746 17.64295959 C0.39733521 16.64260178 0.33727295 15.64224396 0.27539062 14.61157227 C0.22209595 13.74331314 0.16880127 12.87505402 0.1138916 11.98048401 C-0.03860522 7.98972147 0 3.99367512 0 0 Z " fill="#461D3B" transform="translate(843,82)"/>
<path d="M0 0 C47.52 0 95.04 0 144 0 C145.15033784 26.45777027 145.15033784 26.45777027 145.0625 39.4375 C145.05744891 40.77799302 145.0528927 42.118488 145.04882812 43.45898438 C145.03734656 46.63937745 145.02112643 49.81965908 145 53 C144.67 53 144.34 53 144 53 C144 45.74 144 38.48 144 31 C132.45 31 120.9 31 109 31 C107.58500098 21.09500687 108 11.00555401 108 1 C72.36 1 36.72 1 0 1 C0 0.67 0 0.34 0 0 Z " fill="#F093CA" transform="translate(566,262)"/>
<path d="M0 0 C79.86 0 159.72 0 242 0 C242 0.33 242 0.66 242 1 C173.69 1 105.38 1 35 1 C34.34 10.24 33.68 19.48 33 29 C21.78 29 10.56 29 -1 29 C-1 31.64 -1 34.28 -1 37 C-1.33 37 -1.66 37 -2 37 C-2 24.64866179 -0.98496021 12.31200264 0 0 Z " fill="#E188BD" transform="translate(46,23)"/>
<path d="M0 0 C0.33 0 0.66 0 1 0 C1.43215587 4.96174703 1.85920792 9.92389861 2.28173828 14.88647461 C2.42587753 16.57116257 2.57135921 18.25573629 2.71826172 19.94018555 C2.93037789 22.37519263 3.13750386 24.81058326 3.34375 27.24609375 C3.40937134 27.98709824 3.47499268 28.72810272 3.54260254 29.49156189 C3.97844122 34.71669334 4 39.71387934 4 45 C-7.88 45 -19.76 45 -32 45 C-32.78620333 41.06898335 -33.27523727 37.47608101 -33.5625 33.5 C-33.64628906 32.3965625 -33.73007812 31.293125 -33.81640625 30.15625 C-34.06878856 24.44274408 -34 18.71907744 -34 13 C-22.78 13 -11.56 13 0 13 C0 8.71 0 4.42 0 0 Z " fill="#F293CB" transform="translate(998,280)"/>
<path d="M0 0 C11.88 0 23.76 0 36 0 C36 10.23 36 20.46 36 31 C24.12 31 12.24 31 0 31 C0 20.77 0 10.54 0 0 Z " fill="#F9BDE0" transform="translate(494,231)"/>
<path d="M0 0 C11.88 0 23.76 0 36 0 C36 10.23 36 20.46 36 31 C24.12 31 12.24 31 0 31 C0 20.77 0 10.54 0 0 Z " fill="#F9BDE0" transform="translate(351,231)"/>
<path d="M0 0 C11.55 0 23.1 0 35 0 C39.20711789 8.41423577 37.08538517 21.75942751 37 31 C32.03377651 31.02465098 27.06758834 31.04283649 22.10131836 31.05493164 C20.41055684 31.0599719 18.71979971 31.06680405 17.02905273 31.07543945 C14.60399293 31.08751857 12.17899056 31.09323123 9.75390625 31.09765625 C8.61327477 31.10539818 8.61327477 31.10539818 7.44960022 31.11329651 C5.6326743 31.11349238 3.81586873 31.06197277 2 31 C0.11368457 29.11368457 0.75734708 25.85799307 0.68359375 23.33984375 C0.64548584 22.12417725 0.60737793 20.90851074 0.56811523 19.65600586 C0.52501221 18.09889893 0.48190918 16.54179199 0.4375 14.9375 C0.293125 10.008125 0.14875 5.07875 0 0 Z " fill="#F9BDE0" transform="translate(780,231)"/>
<path d="M0 0 C11.22 0 22.44 0 34 0 C35 11 35 11 35 28 C69.32 28 103.64 28 139 28 C139 28.33 139 28.66 139 29 C93.13 29 47.26 29 0 29 C0 19.43 0 9.86 0 0 Z " fill="#E98DC4" transform="translate(564,53)"/>
<path d="M0 0 C11.88 0 23.76 0 36 0 C36 9.9 36 19.8 36 30 C24.12 30 12.24 30 0 30 C0 20.1 0 10.2 0 0 Z " fill="#F9BDE0" transform="translate(638,263)"/>
<path d="M0 0 C11.88 0 23.76 0 36 0 C36 9.9 36 19.8 36 30 C24.12 30 12.24 30 0 30 C0 20.1 0 10.2 0 0 Z " fill="#F594CD" transform="translate(494,201)"/>
<path d="M0 0 C4.96622349 -0.02465098 9.93241166 -0.04283649 14.89868164 -0.05493164 C16.58944316 -0.0599719 18.28020029 -0.06680405 19.97094727 -0.07543945 C22.39600707 -0.08751857 24.82100944 -0.09323123 27.24609375 -0.09765625 C28.38672523 -0.10539818 28.38672523 -0.10539818 29.55039978 -0.11329651 C31.3673257 -0.11349238 33.18413127 -0.06197277 35 0 C36.82362827 1.82362827 36.38882471 4.66046487 36.5625 7.125 C36.64628906 8.24132812 36.73007812 9.35765625 36.81640625 10.5078125 C37.08174227 17.00007671 37 23.50231597 37 30 C25.45 30 13.9 30 2 30 C0.70679133 19.65433068 -0.28932338 10.28705362 0 0 Z " fill="#F9BDE0" transform="translate(777,170)"/>
<path d="M0 0 C11.55 0 23.1 0 35 0 C35 9.9 35 19.8 35 30 C23.12 30 11.24 30 -1 30 C-1.020625 27.091875 -1.04125 24.18375 -1.0625 21.1875 C-1.071604 20.29571045 -1.08070801 19.4039209 -1.09008789 18.48510742 C-1.11119194 12.19814181 -0.57593746 6.33531203 0 0 Z " fill="#F594CD" transform="translate(352,201)"/>
<path d="M0 0 C11.55 0 23.1 0 35 0 C35 3.63 35 7.26 35 11 C35.66 11 36.32 11 37 11 C37 17.27 37 23.54 37 30 C25.45 30 13.9 30 2 30 C0 13 0 13 0 0 Z " fill="#F8BCDF" transform="translate(814,201)"/>
<path d="M0 0 C11.55 0 23.1 0 35 0 C35.33 9.9 35.66 19.8 36 30 C24.12 30 12.24 30 0 30 C0 20.1 0 10.2 0 0 Z " fill="#F9BDE0" transform="translate(675,294)"/>
<path d="M0 0 C11.55 0 23.1 0 35 0 C35 7.11079716 34.9146018 14.10535908 34.5 21.1875 C34.335 24.095625 34.17 27.00375 34 30 C22.45 30 10.9 30 -1 30 C-1.020625 26.535 -1.04125 23.07 -1.0625 19.5 C-1.071604 18.42427734 -1.08070801 17.34855469 -1.09008789 16.24023438 C-1.09258545 15.36689453 -1.09508301 14.49355469 -1.09765625 13.59375 C-1.10289307 12.71396484 -1.10812988 11.83417969 -1.11352539 10.92773438 C-0.97165654 7.26904341 -0.4541458 3.63316638 0 0 Z " fill="#F9BDE0" transform="translate(317,201)"/>
<path d="M0 0 C11.55 0 23.1 0 35 0 C35 9.9 35 19.8 35 30 C23.45 30 11.9 30 0 30 C0 20.1 0 10.2 0 0 Z " fill="#F9BDE0" transform="translate(530,201)"/>
<path d="M0 0 C11.55 0 23.1 0 35 0 C35 9.9 35 19.8 35 30 C23.45 30 11.9 30 0 30 C0 20.1 0 10.2 0 0 Z " fill="#F9BDE0" transform="translate(459,201)"/>
<path d="M0 0 C1.43352212 0.00015908 2.86704998 0.00585132 4.30053711 0.01586914 C5.43041298 0.01799156 5.43041298 0.01799156 6.58311462 0.02015686 C8.99807646 0.02577163 11.41294687 0.03832656 13.82788086 0.05102539 C15.46134307 0.05603849 17.09480672 0.06060173 18.72827148 0.06469727 C22.74070516 0.07489664 26.75294021 0.09446894 30.76538086 0.11352539 C30.76538086 10.01352539 30.76538086 19.91352539 30.76538086 30.11352539 C19.21538086 30.11352539 7.66538086 30.11352539 -4.23461914 30.11352539 C-4.25524414 25.34915039 -4.27586914 20.58477539 -4.29711914 15.67602539 C-4.30622314 14.17112549 -4.31532715 12.66622559 -4.32470703 11.11572266 C-4.32720459 9.94066162 -4.32970215 8.76560059 -4.33227539 7.55493164 C-4.33751221 6.34522705 -4.34274902 5.13552246 -4.34814453 3.88916016 C-4.18496445 -0.10050519 -4.06088536 0.14252485 0 0 Z " fill="#F9BDE0" transform="translate(498.234619140625,169.886474609375)"/>
<path d="M0 0 C11.55 0 23.1 0 35 0 C35.020625 3.650625 35.04125 7.30125 35.0625 11.0625 C35.071604 12.19953369 35.08070801 13.33656738 35.09008789 14.50805664 C35.09258545 15.42449951 35.09508301 16.34094238 35.09765625 17.28515625 C35.10289307 18.21207275 35.10812988 19.13898926 35.11352539 20.09399414 C34.98381662 23.41425972 34.46991463 26.7105976 34 30 C22.45 30 10.9 30 -1 30 C-0.67 20.1 -0.34 10.2 0 0 Z " fill="#F9BDE0" transform="translate(353,170)"/>
<path d="M0 0 C11.22 0 22.44 0 34 0 C36 16 36 16 36 30 C24.45 30 12.9 30 1 30 C0.34744393 22.82188322 -0.13557955 15.97106266 -0.0625 8.8125 C-0.041875 5.904375 -0.02125 2.99625 0 0 Z " fill="#F9BDE0" transform="translate(744,201)"/>
<path d="M0 0 C11.88 0 23.76 0 36 0 C35.855625 4.41375 35.71125 8.8275 35.5625 13.375 C35.51939697 14.76638184 35.47629395 16.15776367 35.43188477 17.59130859 C35.39377686 18.68266113 35.35566895 19.77401367 35.31640625 20.8984375 C35.27974854 22.01911621 35.24309082 23.13979492 35.20532227 24.29443359 C35 27 35 27 34 29 C22.45 29 10.9 29 -1 29 C-1 19.32758791 -0.68913083 9.64783158 0 0 Z " fill="#F9BDE0" transform="translate(142,141)"/>
<path d="M0 0 C11.22 0 22.44 0 34 0 C34 9.9 34 19.8 34 30 C22.45 30 10.9 30 -1 30 C-1 19.99444599 -0.62412931 9.98606898 0 0 Z " fill="#F9BDE0" transform="translate(388,201)"/>
<path d="M0 0 C11.22 0 22.44 0 34 0 C34.020625 3.67125 34.04125 7.3425 34.0625 11.125 C34.071604 12.2711377 34.08070801 13.41727539 34.09008789 14.59814453 C34.09258545 15.51708496 34.09508301 16.43602539 34.09765625 17.3828125 C34.10289307 18.31496582 34.10812988 19.24711914 34.11352539 20.20751953 C34 23 34 23 33 29 C21.12 29 9.24 29 -3 29 C-2.87625 25.885625 -2.7525 22.77125 -2.625 19.5625 C-2.59100098 18.60029541 -2.55700195 17.63809082 -2.52197266 16.64672852 C-2.4863623 15.85709717 -2.45075195 15.06746582 -2.4140625 14.25390625 C-2.3826416 13.46314697 -2.3512207 12.6723877 -2.31884766 11.85766602 C-1.87225407 7.85507956 -0.87367094 3.93151921 0 0 Z " fill="#F9BDE0" transform="translate(106,171)"/>
<path d="M0 0 C0.33 0 0.66 0 1 0 C1 2.31 1 4.62 1 7 C12.22 7 23.44 7 35 7 C35.020625 10.114375 35.04125 13.22875 35.0625 16.4375 C35.071604 17.39970459 35.08070801 18.36190918 35.09008789 19.35327148 C35.09258545 20.14290283 35.09508301 20.93253418 35.09765625 21.74609375 C35.10289307 22.53685303 35.10812988 23.3276123 35.11352539 24.14233398 C34.95593722 28.10915017 34.4384071 32.05433606 34 36 C22.78 36 11.56 36 0 36 C0 38.64 0 41.28 0 44 C-0.33 44 -0.66 44 -1 44 C-1.22812436 29.32399971 -0.55524955 14.66242773 0 0 Z " fill="#F292CA" transform="translate(320,75)"/>
<path d="M0 0 C11.55 0 23.1 0 35 0 C35.04125 2.743125 35.0825 5.48625 35.125 8.3125 C35.14320801 9.15208252 35.16141602 9.99166504 35.18017578 10.85668945 C35.22628378 17.34973636 34.21255511 22.33094691 33 29 C21.45 29 9.9 29 -2 29 C-1.855625 25.514375 -1.71125 22.02875 -1.5625 18.4375 C-1.51939697 17.35267334 -1.47629395 16.26784668 -1.43188477 15.15014648 C-1.39377686 14.27430908 -1.35566895 13.39847168 -1.31640625 12.49609375 C-1.27974854 11.61107178 -1.24309082 10.7260498 -1.20532227 9.81420898 C-0.9654877 6.52696404 -0.4661223 3.26285611 0 0 Z " fill="#F9BDE0" transform="translate(72,141)"/>
<path d="M0 0 C11.55 0 23.1 0 35 0 C35 14 35 14 33 29 C21.45 29 9.9 29 -2 29 C-1.855625 25.143125 -1.71125 21.28625 -1.5625 17.3125 C-1.51939697 16.10505127 -1.47629395 14.89760254 -1.43188477 13.65356445 C-1.39377686 12.691521 -1.35566895 11.72947754 -1.31640625 10.73828125 C-1.27974854 9.75899658 -1.24309082 8.77971191 -1.20532227 7.77075195 C-1 5 -1 5 0 0 Z " fill="#F9BDE0" transform="translate(216,82)"/>
<path d="M0 0 C11.22 0 22.44 0 34 0 C36.25 11.25 36.25 11.25 36.1953125 15.1328125 C36.19031738 15.87934082 36.18532227 16.62586914 36.18017578 17.39501953 C36.16196777 18.29591309 36.14375977 19.19680664 36.125 20.125 C36.08375 23.05375 36.0425 25.9825 36 29 C24.45 29 12.9 29 1 29 C0.36229979 21.98529768 -0.13831216 15.30399141 -0.0625 8.3125 C-0.041875 5.569375 -0.02125 2.82625 0 0 Z " fill="#F8BCDF" transform="translate(950,111)"/>
<path d="M0 0 C0.33 0 0.66 0 1 0 C1.34360428 3.70745359 1.67287055 7.41605937 2 11.125 C2.09539063 12.15238281 2.19078125 13.17976563 2.2890625 14.23828125 C2.98599591 22.25301548 3 29.87890174 3 38 C-8.22 38 -19.44 38 -31 38 C-32.30930449 35.38139101 -32.3378896 33.17350043 -32.5625 30.25 C-32.64628906 29.22390625 -32.73007812 28.1978125 -32.81640625 27.140625 C-33.08427295 21.09937597 -33 15.04718467 -33 9 C-22.11 9 -11.22 9 0 9 C0 6.03 0 3.06 0 0 Z " fill="#F293CB" transform="translate(981,73)"/>
<path d="M0 0 C11.22 0 22.44 0 34 0 C36 14 36 14 36 29 C24.45 29 12.9 29 1 29 C-0.125 18.875 -0.125 18.875 -0.09765625 14.74609375 C-0.09515869 13.9564624 -0.09266113 13.16683105 -0.09008789 12.35327148 C-0.08098389 11.39106689 -0.07187988 10.4288623 -0.0625 9.4375 C-0.041875 6.323125 -0.02125 3.20875 0 0 Z " fill="#F9BDE0" transform="translate(913,82)"/>
<path d="M0 0 C11.22 0 22.44 0 34 0 C34 9.57 34 19.14 34 29 C22.45 29 10.9 29 -1 29 C-1.020625 24.58625 -1.04125 20.1725 -1.0625 15.625 C-1.071604 14.23361816 -1.08070801 12.84223633 -1.09008789 11.40869141 C-1.09258545 10.31733887 -1.09508301 9.22598633 -1.09765625 8.1015625 C-1.10289307 6.98088379 -1.10812988 5.86020508 -1.11352539 4.70556641 C-1 2 -1 2 0 0 Z " fill="#F9BDE0" transform="translate(356,82)"/>
<path d="M0 0 C11.22 0 22.44 0 34 0 C34.020625 3.114375 34.04125 6.22875 34.0625 9.4375 C34.071604 10.39970459 34.08070801 11.36190918 34.09008789 12.35327148 C34.09258545 13.14290283 34.09508301 13.93253418 34.09765625 14.74609375 C34.10289307 15.53685303 34.10812988 16.3276123 34.11352539 17.14233398 C33.95593722 21.10915017 33.4384071 25.05433606 33 29 C21.45 29 9.9 29 -2 29 C-2 21.65524319 -1.9628357 14.92669202 -1 7.75 C-0.67 5.1925 -0.34 2.635 0 0 Z " fill="#F9BDE0" transform="translate(250,111)"/>
<path d="M0 0 C11.22 0 22.44 0 34 0 C35.05836661 3.17509982 35.20243789 5.64282383 35.31640625 8.98046875 C35.37356812 10.55284302 35.37356812 10.55284302 35.43188477 12.15698242 C35.47498779 13.48705322 35.51809082 14.81712402 35.5625 16.1875 C35.706875 20.415625 35.85125 24.64375 36 29 C24.45 29 12.9 29 1 29 C0.22165737 25.10828687 -0.11844927 22.15001261 -0.09765625 18.26171875 C-0.09515869 17.29967529 -0.09266113 16.33763184 -0.09008789 15.34643555 C-0.08098389 14.13898682 -0.07187988 12.93153809 -0.0625 11.6875 C-0.041875 7.830625 -0.02125 3.97375 0 0 Z " fill="#F9BDE0" transform="translate(739,82)"/>
<path d="M0 0 C11.22 0 22.44 0 34 0 C36.25 10.125 36.25 10.125 36.1953125 14.25390625 C36.19031738 15.0435376 36.18532227 15.83316895 36.18017578 16.64672852 C36.16196777 17.60893311 36.14375977 18.5711377 36.125 19.5625 C36.08375 22.676875 36.0425 25.79125 36 29 C24.78 29 13.56 29 2 29 C1.67 26.256875 1.34 23.51375 1 20.6875 C0.89558594 19.84791748 0.79117188 19.00833496 0.68359375 18.14331055 C-0.02944345 11.96719172 0 6.33170057 0 0 Z " fill="#F9BCDF" transform="translate(945,52)"/>
<path d="M0 0 C11.22 0 22.44 0 34 0 C34 9.67241209 33.64339928 19.34901078 33 29 C21.45 29 9.9 29 -2 29 C-2 22.5642958 -1.9945026 16.38034614 -1.5625 10 C-1.48128906 8.741875 -1.40007812 7.48375 -1.31640625 6.1875 C-1 3 -1 3 0 0 Z " fill="#F594CD" transform="translate(108,141)"/>
<path d="M0 0 C11.22 0 22.44 0 34 0 C34 9.57 34 19.14 34 29 C22.45 29 10.9 29 -1 29 C-1.020625 25.7 -1.04125 22.4 -1.0625 19 C-1.071604 17.97648437 -1.08070801 16.95296875 -1.09008789 15.8984375 C-1.09258545 15.06570312 -1.09508301 14.23296875 -1.09765625 13.375 C-1.10289307 12.53710938 -1.10812988 11.69921875 -1.11352539 10.8359375 C-0.96828916 7.20784283 -0.45037018 3.60296145 0 0 Z " fill="#F9BDE0" transform="translate(320,111)"/>
<path d="M0 0 C11.22 0 22.44 0 34 0 C34.020625 4.599375 34.04125 9.19875 34.0625 13.9375 C34.071604 15.39019287 34.08070801 16.84288574 34.09008789 18.33959961 C34.09258545 19.47405518 34.09508301 20.60851074 34.09765625 21.77734375 C34.10289307 22.94515381 34.10812988 24.11296387 34.11352539 25.31616211 C34 28 34 28 33 29 C30.47905924 29.08847743 27.98569107 29.11527301 25.46484375 29.09765625 C24.33496788 29.09553383 24.33496788 29.09553383 23.18226624 29.09336853 C20.7673044 29.08775376 18.35243399 29.07519883 15.9375 29.0625 C14.30403779 29.0574869 12.67057414 29.05292366 11.03710938 29.04882812 C7.02470415 29.03777954 3.01236759 29.02050506 -1 29 C-1.02733632 26.04160232 -1.04699906 23.08346503 -1.0625 20.125 C-1.07087891 19.30257812 -1.07925781 18.48015625 -1.08789062 17.6328125 C-1.09111328 16.8078125 -1.09433594 15.9828125 -1.09765625 15.1328125 C-1.10289307 14.38918457 -1.10812988 13.64555664 -1.11352539 12.87939453 C-0.94376129 8.57359271 -0.42877617 4.28776167 0 0 Z " fill="#F9BCE0" transform="translate(252,52)"/>
<path d="M0 0 C11.55 0 23.1 0 35 0 C35 13 35 13 33 29 C21.78 29 10.56 29 -1 29 C-0.67 19.43 -0.34 9.86 0 0 Z " fill="#F9BDE0" transform="translate(109,111)"/>
<path d="M0 0 C11.22 0 22.44 0 34 0 C34.020625 3.67125 34.04125 7.3425 34.0625 11.125 C34.071604 12.2711377 34.08070801 13.41727539 34.09008789 14.59814453 C34.09258545 15.51708496 34.09508301 16.43602539 34.09765625 17.3828125 C34.10289307 18.31496582 34.10812988 19.24711914 34.11352539 20.20751953 C34 23 34 23 33 29 C21.78 29 10.56 29 -1 29 C-1 19.32758791 -0.68913083 9.64783158 0 0 Z " fill="#F494CC" transform="translate(251,82)"/>
<path d="M0 0 C11.22 0 22.44 0 34 0 C33.34 9.57 32.68 19.14 32 29 C20.78 29 9.56 29 -2 29 C-2.020625 25.555625 -2.04125 22.11125 -2.0625 18.5625 C-2.071604 17.47525635 -2.08070801 16.3880127 -2.09008789 15.26782227 C-2.09258545 14.41760498 -2.09508301 13.5673877 -2.09765625 12.69140625 C-2.10289307 11.81685791 -2.10812988 10.94230957 -2.11352539 10.04125977 C-2 8 -2 8 -1 7 C-0.67 4.69 -0.34 2.38 0 0 Z " fill="#F9BCE0" transform="translate(45,53)"/>
<path d="M0 0 C11.55 0 23.1 0 35 0 C35.58256852 9.3210963 36 18.66071618 36 28 C24.45 28 12.9 28 1 28 C0.37415011 23.61905075 -0.12436072 20.02207629 -0.09765625 15.72265625 C-0.09515869 14.88742432 -0.09266113 14.05219238 -0.09008789 13.19165039 C-0.08098389 12.15903076 -0.07187988 11.12641113 -0.0625 10.0625 C-0.041875 6.741875 -0.02125 3.42125 0 0 Z " fill="#F9BDE0" transform="translate(772,53)"/>
<path d="M0 0 C11.55 0 23.1 0 35 0 C35 9.24 35 18.48 35 28 C23.45 28 11.9 28 0 28 C0 18.76 0 9.52 0 0 Z " fill="#F9BDE0" transform="translate(529,53)"/>
<path d="M0 0 C4.82387067 -0.0229102 9.64755389 -0.04283686 14.47143555 -0.05493164 C16.11369464 -0.05997174 17.75594923 -0.06680378 19.39819336 -0.07543945 C21.75375479 -0.08751926 24.10925709 -0.09323139 26.46484375 -0.09765625 C27.20339096 -0.10281754 27.94193817 -0.10797882 28.7028656 -0.11329651 C30.46898088 -0.1134925 32.23497146 -0.06194719 34 0 C35 1 35 1 35.11352539 3.59204102 C35.10828857 4.71795654 35.10305176 5.84387207 35.09765625 7.00390625 C35.09515869 8.09775635 35.09266113 9.19160645 35.09008789 10.31860352 C35.08098389 11.71908936 35.07187988 13.1195752 35.0625 14.5625 C35.041875 18.996875 35.02125 23.43125 35 28 C23.45 28 11.9 28 0 28 C0 18.76 0 9.52 0 0 Z " fill="#F9BDE0" transform="translate(599,53)"/>
<path d="M0 0 C11.22 0 22.44 0 34 0 C34.020625 3.135 34.04125 6.27 34.0625 9.5 C34.071604 10.47130859 34.08070801 11.44261719 34.09008789 12.44335938 C34.09258545 13.23548828 34.09508301 14.02761719 34.09765625 14.84375 C34.10289307 15.63974609 34.10812988 16.43574219 34.11352539 17.25585938 C33.96469701 20.85334534 33.4465949 24.42724082 33 28 C21.45 28 9.9 28 -2 28 C-1.855625 24.308125 -1.71125 20.61625 -1.5625 16.8125 C-1.51939697 15.6572583 -1.47629395 14.5020166 -1.43188477 13.31176758 C-1.39377686 12.39032959 -1.35566895 11.4688916 -1.31640625 10.51953125 C-1.27974854 9.58214111 -1.24309082 8.64475098 -1.20532227 7.67895508 C-1 5 -1 5 0 0 Z " fill="#F9BDE0" transform="translate(81,24)"/>
<path d="M0 0 C11.55 0 23.1 0 35 0 C35.33 9.24 35.66 18.48 36 28 C31.17612933 28.0229102 26.35244611 28.04283686 21.52856445 28.05493164 C19.88630536 28.05997174 18.24405077 28.06680378 16.60180664 28.07543945 C14.24624521 28.08751926 11.89074291 28.09323139 9.53515625 28.09765625 C8.79660904 28.10281754 8.05806183 28.10797882 7.2971344 28.11329651 C5.53101912 28.1134925 3.76502854 28.06194719 2 28 C0.19605125 26.19605125 0.76294211 23.43322201 0.68359375 20.99609375 C0.64548584 19.90224365 0.60737793 18.80839355 0.56811523 17.68139648 C0.52501221 16.28091064 0.48190918 14.8804248 0.4375 13.4375 C0.293125 9.003125 0.14875 4.56875 0 0 Z " fill="#F493CC" transform="translate(737,53)"/>
<path d="M0 0 C11.22 0 22.44 0 34 0 C34 9.33928382 33.62123992 18.68140122 33 28 C21.78 28 10.56 28 -1 28 C-1.020625 24.49375 -1.04125 20.9875 -1.0625 17.375 C-1.071604 16.28106934 -1.08070801 15.18713867 -1.09008789 14.06005859 C-1.09258545 13.18172363 -1.09508301 12.30338867 -1.09765625 11.3984375 C-1.10289307 10.50817871 -1.10812988 9.61791992 -1.11352539 8.70068359 C-1 6 -1 6 0 0 Z " fill="#F9BDE0" transform="translate(322,53)"/>
<path d="M0 0 C11.22 0 22.44 0 34 0 C34 9.24 34 18.48 34 28 C22.78 28 11.56 28 0 28 C0 18.76 0 9.52 0 0 Z " fill="#F9BDE0" transform="translate(564,24)"/>
<path d="M0 0 C11.55 0 23.1 0 35 0 C35 9.24 35 18.48 35 28 C24.11 28 13.22 28 2 28 C1.67 24.49375 1.34 20.9875 1 17.375 C0.89558594 16.28106934 0.79117188 15.18713867 0.68359375 14.06005859 C0.56177734 12.74255615 0.56177734 12.74255615 0.4375 11.3984375 C0.35371094 10.50817871 0.26992188 9.61791992 0.18359375 8.70068359 C-0.0131549 5.80648996 0 2.90087346 0 0 Z " fill="#F9BDE0" transform="translate(736,24)"/>
<path d="M0 0 C0.33 0 0.66 0 1 0 C1 6.93 1 13.86 1 21 C12.22 21 23.44 21 35 21 C35 21.33 35 21.66 35 22 C23.78 22 12.56 22 1 22 C1 25.63 1 29.26 1 33 C0.67 33 0.34 33 0 33 C0 29.37 0 25.74 0 22 C-22.44 22 -44.88 22 -68 22 C-68 21.67 -68 21.34 -68 21 C-45.56 21 -23.12 21 0 21 C0 14.07 0 7.14 0 0 Z " fill="#F7ACD8" transform="translate(598,31)"/>
<path d="M0 0 C0.33 0 0.66 0 1 0 C1 2.31 1 4.62 1 7 C12.22 7 23.44 7 35 7 C35 7.33 35 7.66 35 8 C23.78 8 12.56 8 1 8 C1 13.28 1 18.56 1 24 C0.67 24 0.34 24 0 24 C0 18.72 0 13.44 0 8 C-23.1 8 -46.2 8 -70 8 C-70 7.67 -70 7.34 -70 7 C-46.9 7 -23.8 7 0 7 C0 4.69 0 2.38 0 0 Z " fill="#F7ACD8" transform="translate(387,193)"/>
<path d="M0 0 C0.33 0 0.66 0 1 0 C1 1.65 1 3.3 1 5 C24.1 5 47.2 5 71 5 C71 5.33 71 5.66 71 6 C59.45 6 47.9 6 36 6 C36 8.64 36 11.28 36 14 C35.67 14 35.34 14 35 14 C35 11.36 35 8.72 35 6 C23.78 6 12.56 6 1 6 C0.67 6.66 0.34 7.32 0 8 C0 7.34 0 6.68 0 6 C-11.55 6 -23.1 6 -35 6 C-35 5.67 -35 5.34 -35 5 C-23.45 5 -11.9 5 0 5 C0 3.35 0 1.7 0 0 Z " fill="#F7ACD8" transform="translate(105,165)"/>
<path d="M0 0 C0.33 0 0.66 0 1 0 C1 1.65 1 3.3 1 5 C24.1 5 47.2 5 71 5 C71 5.33 71 5.66 71 6 C47.9 6 24.8 6 1 6 C1 7.65 1 9.3 1 11 C0.67 11 0.34 11 0 11 C0 9.35 0 7.7 0 6 C-11.22 6 -22.44 6 -34 6 C-34 5.67 -34 5.34 -34 5 C-22.78 5 -11.56 5 0 5 C0 3.35 0 1.7 0 0 Z " fill="#F7ACD8" transform="translate(778,195)"/>
<path d="M0 0 C0.33 0 0.66 0 1 0 C1 2.31 1 4.62 1 7 C12.55 7 24.1 7 36 7 C36 7.33 36 7.66 36 8 C24.45 8 12.9 8 1 8 C1 11.63 1 15.26 1 19 C0.67 19 0.34 19 0 19 C0 15.37 0 11.74 0 8 C-11.55 8 -23.1 8 -35 8 C-35 7.67 -35 7.34 -35 7 C-23.45 7 -11.9 7 0 7 C0 4.69 0 2.38 0 0 Z " fill="#F7ACD8" transform="translate(674,286)"/>
<path d="M0 0 C0.33 0 0.66 0 1 0 C1 4.95 1 9.9 1 15 C12.22 15 23.44 15 35 15 C35 15.33 35 15.66 35 16 C23.78 16 12.56 16 1 16 C0.67 16.66 0.34 17.32 0 18 C0 17.34 0 16.68 0 16 C-11.22 16 -22.44 16 -34 16 C-34 15.67 -34 15.34 -34 15 C-22.78 15 -11.56 15 0 15 C0 10.05 0 5.1 0 0 Z " fill="#F7ACD8" transform="translate(355,66)"/>
</svg>
